<svg width="49" height="18" viewBox="0 0 49 18" fill="none" xmlns="http://www.w3.org/2000/svg">
<rect x="0.820435" y="1.62109" width="47.9487" height="13.0952" rx="4.35897" fill="#FDD446"/>
<path d="M11.9832 11.3825C11.6286 11.3825 11.3322 11.3148 11.0942 11.1795C10.8562 11.0442 10.6742 10.8575 10.5482 10.6195C10.4222 10.3768 10.3522 10.1015 10.3382 9.7935C10.3336 9.71417 10.3312 9.61383 10.3312 9.4925C10.3312 9.3665 10.3336 9.26617 10.3382 9.1915C10.3522 8.87883 10.4222 8.6035 10.5482 8.3655C10.6789 8.1275 10.8632 7.94083 11.1012 7.8055C11.3392 7.67017 11.6332 7.6025 11.9832 7.6025C12.3332 7.6025 12.6272 7.67017 12.8652 7.8055C13.1032 7.94083 13.2852 8.1275 13.4112 8.3655C13.5419 8.6035 13.6142 8.87883 13.6282 9.1915C13.6329 9.26617 13.6352 9.3665 13.6352 9.4925C13.6352 9.61383 13.6329 9.71417 13.6282 9.7935C13.6142 10.1015 13.5442 10.3768 13.4182 10.6195C13.2922 10.8575 13.1102 11.0442 12.8722 11.1795C12.6342 11.3148 12.3379 11.3825 11.9832 11.3825ZM11.9832 10.8435C12.2726 10.8435 12.5036 10.7525 12.6762 10.5705C12.8489 10.3838 12.9422 10.1132 12.9562 9.7585C12.9609 9.6885 12.9632 9.59983 12.9632 9.4925C12.9632 9.38517 12.9609 9.2965 12.9562 9.2265C12.9422 8.87183 12.8489 8.6035 12.6762 8.4215C12.5036 8.23483 12.2726 8.1415 11.9832 8.1415C11.6939 8.1415 11.4606 8.23483 11.2832 8.4215C11.1106 8.6035 11.0196 8.87183 11.0102 9.2265C11.0056 9.2965 11.0032 9.38517 11.0032 9.4925C11.0032 9.59983 11.0056 9.6885 11.0102 9.7585C11.0196 10.1132 11.1106 10.3838 11.2832 10.5705C11.4606 10.7525 11.6939 10.8435 11.9832 10.8435ZM15.6248 11.3125C15.5781 11.3125 15.5384 11.2985 15.5058 11.2705C15.4778 11.2378 15.4638 11.1982 15.4638 11.1515V8.2325H14.2458C14.1991 8.2325 14.1594 8.2185 14.1268 8.1905C14.0988 8.15783 14.0848 8.11817 14.0848 8.0715V7.8335C14.0848 7.78683 14.0988 7.7495 14.1268 7.7215C14.1594 7.68883 14.1991 7.6725 14.2458 7.6725H17.3258C17.3724 7.6725 17.4098 7.68883 17.4378 7.7215C17.4704 7.7495 17.4868 7.78683 17.4868 7.8335V8.0715C17.4868 8.11817 17.4704 8.15783 17.4378 8.1905C17.4098 8.2185 17.3724 8.2325 17.3258 8.2325H16.1078V11.1515C16.1078 11.1982 16.0938 11.2378 16.0658 11.2705C16.0378 11.2985 15.9981 11.3125 15.9468 11.3125H15.6248ZM21.3356 11.3825C20.967 11.3825 20.6543 11.3195 20.3976 11.1935C20.1456 11.0628 19.952 10.8948 19.8166 10.6895C19.686 10.4842 19.616 10.2672 19.6066 10.0385C19.602 9.9965 19.6136 9.96383 19.6416 9.9405C19.6696 9.91717 19.7046 9.9055 19.7466 9.9055H20.1246C20.1666 9.9055 20.204 9.91483 20.2366 9.9335C20.2693 9.95217 20.295 9.99183 20.3136 10.0525C20.3603 10.2252 20.435 10.3675 20.5376 10.4795C20.645 10.5868 20.7663 10.6662 20.9016 10.7175C21.0416 10.7642 21.1863 10.7875 21.3356 10.7875C21.5363 10.7875 21.7183 10.7478 21.8816 10.6685C22.0496 10.5845 22.1826 10.4632 22.2806 10.3045C22.3786 10.1412 22.4276 9.94517 22.4276 9.7165C22.4276 9.5065 22.3786 9.32683 22.2806 9.1775C22.1873 9.0235 22.0566 8.90683 21.8886 8.8275C21.7253 8.7435 21.541 8.7015 21.3356 8.7015C21.1816 8.7015 21.0556 8.72017 20.9576 8.7575C20.8596 8.79483 20.7756 8.83917 20.7056 8.8905C20.6403 8.94183 20.5796 8.98617 20.5236 9.0235C20.4723 9.06083 20.414 9.0795 20.3486 9.0795H19.9846C19.9426 9.0795 19.9053 9.0655 19.8726 9.0375C19.84 9.00483 19.826 8.9675 19.8306 8.9255L20.0546 6.5875C20.0593 6.5315 20.0756 6.4895 20.1036 6.4615C20.1363 6.42883 20.1783 6.4125 20.2296 6.4125H22.6726C22.7193 6.4125 22.7566 6.42883 22.7846 6.4615C22.8173 6.4895 22.8336 6.52683 22.8336 6.5735V6.8465C22.8336 6.89783 22.8173 6.9375 22.7846 6.9655C22.7566 6.9935 22.7193 7.0075 22.6726 7.0075H20.6566L20.5236 8.3865C20.589 8.3445 20.694 8.2955 20.8386 8.2395C20.9833 8.17883 21.1816 8.1485 21.4336 8.1485C21.6623 8.1485 21.877 8.1835 22.0776 8.2535C22.283 8.3235 22.465 8.42617 22.6236 8.5615C22.7823 8.69683 22.906 8.8625 22.9946 9.0585C23.0833 9.24983 23.1276 9.4715 23.1276 9.7235C23.1276 10.0782 23.0483 10.3792 22.8896 10.6265C22.7356 10.8738 22.5233 11.0628 22.2526 11.1935C21.9866 11.3195 21.681 11.3825 21.3356 11.3825ZM25.6669 11.3825C25.3449 11.3825 25.0719 11.3335 24.8479 11.2355C24.6285 11.1328 24.4489 10.9928 24.3089 10.8155C24.1689 10.6382 24.0662 10.4352 24.0009 10.2065C23.9402 9.97783 23.9052 9.73517 23.8959 9.4785C23.8912 9.3525 23.8865 9.2195 23.8819 9.0795C23.8819 8.9395 23.8819 8.7995 23.8819 8.6595C23.8865 8.51483 23.8912 8.37717 23.8959 8.2465C23.9005 7.98983 23.9355 7.74717 24.0009 7.5185C24.0709 7.28517 24.1735 7.08217 24.3089 6.9095C24.4489 6.73217 24.6309 6.5945 24.8549 6.4965C25.0789 6.39383 25.3495 6.3425 25.6669 6.3425C25.9889 6.3425 26.2595 6.39383 26.4789 6.4965C26.7029 6.5945 26.8849 6.73217 27.0249 6.9095C27.1649 7.08217 27.2675 7.28517 27.3329 7.5185C27.4029 7.74717 27.4402 7.98983 27.4449 8.2465C27.4495 8.37717 27.4519 8.51483 27.4519 8.6595C27.4565 8.7995 27.4565 8.9395 27.4519 9.0795C27.4519 9.2195 27.4495 9.3525 27.4449 9.4785C27.4402 9.73517 27.4029 9.97783 27.3329 10.2065C27.2675 10.4352 27.1649 10.6382 27.0249 10.8155C26.8895 10.9928 26.7099 11.1328 26.4859 11.2355C26.2665 11.3335 25.9935 11.3825 25.6669 11.3825ZM25.6669 10.7875C26.0309 10.7875 26.2992 10.6685 26.4719 10.4305C26.6492 10.1878 26.7402 9.85883 26.7449 9.4435C26.7542 9.30817 26.7589 9.1775 26.7589 9.0515C26.7589 8.92083 26.7589 8.7925 26.7589 8.6665C26.7589 8.53583 26.7542 8.4075 26.7449 8.2815C26.7402 7.8755 26.6492 7.55117 26.4719 7.3085C26.2992 7.06117 26.0309 6.9375 25.6669 6.9375C25.3075 6.9375 25.0392 7.06117 24.8619 7.3085C24.6892 7.55117 24.5982 7.8755 24.5889 8.2815C24.5889 8.4075 24.5865 8.53583 24.5819 8.6665C24.5819 8.7925 24.5819 8.92083 24.5819 9.0515C24.5865 9.1775 24.5889 9.30817 24.5889 9.4435C24.5982 9.85883 24.6915 10.1878 24.8689 10.4305C25.0462 10.6685 25.3122 10.7875 25.6669 10.7875ZM30.1102 11.3825C29.7882 11.3825 29.5152 11.3335 29.2912 11.2355C29.0719 11.1328 28.8922 10.9928 28.7522 10.8155C28.6122 10.6382 28.5096 10.4352 28.4442 10.2065C28.3836 9.97783 28.3486 9.73517 28.3392 9.4785C28.3346 9.3525 28.3299 9.2195 28.3252 9.0795C28.3252 8.9395 28.3252 8.7995 28.3252 8.6595C28.3299 8.51483 28.3346 8.37717 28.3392 8.2465C28.3439 7.98983 28.3789 7.74717 28.4442 7.5185C28.5142 7.28517 28.6169 7.08217 28.7522 6.9095C28.8922 6.73217 29.0742 6.5945 29.2982 6.4965C29.5222 6.39383 29.7929 6.3425 30.1102 6.3425C30.4322 6.3425 30.7029 6.39383 30.9222 6.4965C31.1462 6.5945 31.3282 6.73217 31.4682 6.9095C31.6082 7.08217 31.7109 7.28517 31.7762 7.5185C31.8462 7.74717 31.8836 7.98983 31.8882 8.2465C31.8929 8.37717 31.8952 8.51483 31.8952 8.6595C31.8999 8.7995 31.8999 8.9395 31.8952 9.0795C31.8952 9.2195 31.8929 9.3525 31.8882 9.4785C31.8836 9.73517 31.8462 9.97783 31.7762 10.2065C31.7109 10.4352 31.6082 10.6382 31.4682 10.8155C31.3329 10.9928 31.1532 11.1328 30.9292 11.2355C30.7099 11.3335 30.4369 11.3825 30.1102 11.3825ZM30.1102 10.7875C30.4742 10.7875 30.7426 10.6685 30.9152 10.4305C31.0926 10.1878 31.1836 9.85883 31.1882 9.4435C31.1976 9.30817 31.2022 9.1775 31.2022 9.0515C31.2022 8.92083 31.2022 8.7925 31.2022 8.6665C31.2022 8.53583 31.1976 8.4075 31.1882 8.2815C31.1836 7.8755 31.0926 7.55117 30.9152 7.3085C30.7426 7.06117 30.4742 6.9375 30.1102 6.9375C29.7509 6.9375 29.4826 7.06117 29.3052 7.3085C29.1326 7.55117 29.0416 7.8755 29.0322 8.2815C29.0322 8.4075 29.0299 8.53583 29.0252 8.6665C29.0252 8.7925 29.0252 8.92083 29.0252 9.0515C29.0299 9.1775 29.0322 9.30817 29.0322 9.4435C29.0416 9.85883 29.1349 10.1878 29.3122 10.4305C29.4896 10.6685 29.7556 10.7875 30.1102 10.7875ZM35.0164 11.3125C34.9698 11.3125 34.9301 11.2985 34.8974 11.2705C34.8694 11.2378 34.8554 11.1982 34.8554 11.1515V10.2555H34.3164C34.2698 10.2555 34.2301 10.2415 34.1974 10.2135C34.1694 10.1808 34.1554 10.1412 34.1554 10.0945V9.9335C34.1554 9.88683 34.1694 9.8495 34.1974 9.8215C34.2301 9.78883 34.2698 9.7725 34.3164 9.7725H34.8554V9.3735H34.3164C34.2698 9.3735 34.2301 9.3595 34.1974 9.3315C34.1694 9.29883 34.1554 9.25917 34.1554 9.2125V8.9745C34.1554 8.92783 34.1694 8.8905 34.1974 8.8625C34.2301 8.82983 34.2698 8.8135 34.3164 8.8135H34.8554V6.5805C34.8554 6.52917 34.8694 6.4895 34.8974 6.4615C34.9301 6.42883 34.9698 6.4125 35.0164 6.4125H36.7944C37.1398 6.4125 37.4384 6.4685 37.6904 6.5805C37.9471 6.6925 38.1454 6.8605 38.2854 7.0845C38.4254 7.30383 38.4954 7.57917 38.4954 7.9105C38.4954 8.23717 38.4254 8.50783 38.2854 8.7225C38.1454 8.93717 37.9471 9.1005 37.6904 9.2125C37.4384 9.31983 37.1398 9.3735 36.7944 9.3735H35.5554V9.7725H36.9064C36.9531 9.7725 36.9904 9.78883 37.0184 9.8215C37.0511 9.8495 37.0674 9.88683 37.0674 9.9335V10.0945C37.0674 10.1412 37.0511 10.1808 37.0184 10.2135C36.9904 10.2415 36.9531 10.2555 36.9064 10.2555H35.5554V11.1515C35.5554 11.1982 35.5391 11.2378 35.5064 11.2705C35.4784 11.2985 35.4388 11.3125 35.3874 11.3125H35.0164ZM35.5484 8.8135H36.7594C37.1048 8.8135 37.3638 8.7365 37.5364 8.5825C37.7091 8.4285 37.7954 8.2045 37.7954 7.9105C37.7954 7.62117 37.7114 7.39717 37.5434 7.2385C37.3754 7.07983 37.1141 7.0005 36.7594 7.0005H35.5484V8.8135Z" fill="black"/>
</svg>
