<svg width="57" height="18" viewBox="0 0 57 18" fill="none" xmlns="http://www.w3.org/2000/svg">
<path d="M9.07064 13.123C9.01931 13.123 8.97964 13.1066 8.95164 13.074C8.92364 13.046 8.90964 13.0086 8.90964 12.962V12.724C8.90964 12.6773 8.92364 12.6376 8.95164 12.605C8.97964 12.577 9.01931 12.563 9.07064 12.563H9.25264C9.35998 12.563 9.44631 12.542 9.51164 12.5C9.57698 12.458 9.63531 12.3856 9.68664 12.283C9.74264 12.185 9.80798 12.0496 9.88264 11.877L11.4016 8.27197C11.4156 8.23463 11.4343 8.20663 11.4576 8.18797C11.4856 8.16463 11.5253 8.15297 11.5766 8.15297H11.8846C11.9266 8.15297 11.9616 8.16697 11.9896 8.19497C12.0176 8.22297 12.0316 8.25564 12.0316 8.29297C12.0316 8.31164 12.0293 8.3303 12.0246 8.34897C12.02 8.36297 12.0106 8.3863 11.9966 8.41897L10.6666 11.569C10.5966 11.737 10.5196 11.912 10.4356 12.094C10.3563 12.276 10.2653 12.444 10.1626 12.598C10.0646 12.7566 9.94798 12.8826 9.81264 12.976C9.67731 13.074 9.51864 13.123 9.33664 13.123H9.07064ZM10.0436 11.688L8.62964 8.41897C8.60631 8.36297 8.59464 8.3233 8.59464 8.29997C8.59931 8.25797 8.61564 8.22297 8.64364 8.19497C8.67164 8.16697 8.70431 8.15297 8.74164 8.15297H9.07064C9.12198 8.15297 9.15931 8.16463 9.18264 8.18797C9.21064 8.2113 9.23164 8.2393 9.24564 8.27197L10.4076 11.051L10.0436 11.688ZM12.8986 11.793C12.8519 11.793 12.8123 11.779 12.7796 11.751C12.7516 11.7183 12.7376 11.6786 12.7376 11.632V8.31397C12.7376 8.2673 12.7516 8.22997 12.7796 8.20197C12.8123 8.1693 12.8519 8.15297 12.8986 8.15297H13.2346C13.2813 8.15297 13.3186 8.1693 13.3466 8.20197C13.3746 8.22997 13.3886 8.2673 13.3886 8.31397V9.65797H15.2996V8.31397C15.2996 8.2673 15.3136 8.22997 15.3416 8.20197C15.3743 8.1693 15.4139 8.15297 15.4606 8.15297H15.7896C15.8363 8.15297 15.8736 8.1693 15.9016 8.20197C15.9343 8.22997 15.9506 8.2673 15.9506 8.31397V11.632C15.9506 11.6786 15.9343 11.7183 15.9016 11.751C15.8736 11.779 15.8363 11.793 15.7896 11.793H15.4606C15.4139 11.793 15.3743 11.779 15.3416 11.751C15.3136 11.7183 15.2996 11.6786 15.2996 11.632V10.218H13.3886V11.632C13.3886 11.6786 13.3746 11.7183 13.3466 11.751C13.3186 11.779 13.2813 11.793 13.2346 11.793H12.8986ZM17.1572 11.793C17.1152 11.793 17.0779 11.779 17.0452 11.751C17.0172 11.7183 17.0032 11.6833 17.0032 11.646V8.31397C17.0032 8.2673 17.0172 8.22997 17.0452 8.20197C17.0779 8.1693 17.1176 8.15297 17.1642 8.15297H17.5002C17.5469 8.15297 17.5842 8.1693 17.6122 8.20197C17.6402 8.22997 17.6542 8.2673 17.6542 8.31397V11.282L17.4722 11.093L19.5932 8.25797C19.6166 8.22997 19.6422 8.20663 19.6702 8.18797C19.6982 8.16463 19.7332 8.15297 19.7752 8.15297H20.0972C20.1346 8.15297 20.1672 8.16697 20.1952 8.19497C20.2279 8.22297 20.2442 8.25564 20.2442 8.29297V11.632C20.2442 11.6786 20.2279 11.7183 20.1952 11.751C20.1672 11.779 20.1299 11.793 20.0832 11.793H19.7542C19.7029 11.793 19.6632 11.779 19.6352 11.751C19.6072 11.7183 19.5932 11.6786 19.5932 11.632V8.83897L19.7892 8.83197L17.6542 11.688C17.6356 11.7113 17.6122 11.7346 17.5842 11.758C17.5562 11.7813 17.5189 11.793 17.4722 11.793H17.1572ZM21.4299 11.793C21.3832 11.793 21.3435 11.779 21.3109 11.751C21.2829 11.7183 21.2689 11.6786 21.2689 11.632V8.31397C21.2689 8.2673 21.2829 8.22997 21.3109 8.20197C21.3435 8.1693 21.3832 8.15297 21.4299 8.15297H21.7589C21.8055 8.15297 21.8429 8.1693 21.8709 8.20197C21.9035 8.22997 21.9199 8.2673 21.9199 8.31397V9.65797H22.5569L23.5019 8.25797C23.5252 8.2253 23.5509 8.19963 23.5789 8.18097C23.6069 8.1623 23.6442 8.15297 23.6909 8.15297H24.0549C24.0969 8.15297 24.1319 8.1623 24.1599 8.18097C24.1879 8.19963 24.2019 8.22764 24.2019 8.26497C24.2019 8.2743 24.1972 8.2883 24.1879 8.30697C24.1832 8.32097 24.1762 8.33497 24.1669 8.34897L23.1169 9.89597L24.3069 11.59C24.3302 11.618 24.3419 11.6483 24.3419 11.681C24.3419 11.7183 24.3279 11.7463 24.2999 11.765C24.2765 11.7836 24.2439 11.793 24.2019 11.793H23.7749C23.7329 11.793 23.6979 11.7836 23.6699 11.765C23.6419 11.7463 23.6162 11.7206 23.5929 11.688L22.5639 10.225H21.9199V11.632C21.9199 11.6786 21.9035 11.7183 21.8709 11.751C21.8429 11.779 21.8055 11.793 21.7589 11.793H21.4299ZM26.0368 11.863C25.8035 11.863 25.5911 11.8163 25.3998 11.723C25.2085 11.6296 25.0545 11.5036 24.9378 11.345C24.8211 11.1863 24.7628 11.0066 24.7628 10.806C24.7628 10.484 24.8935 10.2273 25.1548 10.036C25.4161 9.84464 25.7568 9.71864 26.1768 9.65797L27.2198 9.51097V9.30797C27.2198 9.08397 27.1545 8.90897 27.0238 8.78297C26.8978 8.65697 26.6901 8.59397 26.4008 8.59397C26.1908 8.59397 26.0205 8.63597 25.8898 8.71997C25.7638 8.80397 25.6751 8.9113 25.6238 9.04197C25.5958 9.11197 25.5468 9.14697 25.4768 9.14697H25.1618C25.1105 9.14697 25.0708 9.13297 25.0428 9.10497C25.0195 9.0723 25.0078 9.03497 25.0078 8.99297C25.0078 8.92297 25.0335 8.83664 25.0848 8.73397C25.1408 8.6313 25.2248 8.53097 25.3368 8.43297C25.4488 8.33497 25.5911 8.2533 25.7638 8.18797C25.9411 8.11797 26.1558 8.08297 26.4078 8.08297C26.6878 8.08297 26.9235 8.1203 27.1148 8.19497C27.3061 8.26497 27.4555 8.36064 27.5628 8.48197C27.6748 8.6033 27.7541 8.74097 27.8008 8.89497C27.8521 9.04897 27.8778 9.2053 27.8778 9.36397V11.632C27.8778 11.6786 27.8615 11.7183 27.8288 11.751C27.8008 11.779 27.7635 11.793 27.7168 11.793H27.3948C27.3435 11.793 27.3038 11.779 27.2758 11.751C27.2478 11.7183 27.2338 11.6786 27.2338 11.632V11.331C27.1731 11.415 27.0915 11.499 26.9888 11.583C26.8861 11.6623 26.7578 11.73 26.6038 11.786C26.4498 11.8373 26.2608 11.863 26.0368 11.863ZM26.1838 11.338C26.3751 11.338 26.5501 11.2983 26.7088 11.219C26.8675 11.135 26.9911 11.0066 27.0798 10.834C27.1731 10.6613 27.2198 10.4443 27.2198 10.183V9.98697L26.4078 10.106C26.0765 10.1526 25.8268 10.232 25.6588 10.344C25.4908 10.4513 25.4068 10.589 25.4068 10.757C25.4068 10.8876 25.4441 10.9973 25.5188 11.086C25.5981 11.17 25.6961 11.233 25.8128 11.275C25.9341 11.317 26.0578 11.338 26.1838 11.338ZM28.7091 11.793C28.6624 11.793 28.6228 11.7766 28.5901 11.744C28.5574 11.7113 28.5411 11.6716 28.5411 11.625V11.366C28.5411 11.268 28.5901 11.2166 28.6881 11.212C28.8328 11.2073 28.9541 11.1396 29.0521 11.009C29.1501 10.8736 29.2248 10.6613 29.2761 10.372C29.3274 10.078 29.3531 9.69064 29.3531 9.20997V8.31397C29.3531 8.2673 29.3671 8.22997 29.3951 8.20197C29.4278 8.1693 29.4674 8.15297 29.5141 8.15297H31.7401C31.7868 8.15297 31.8241 8.1693 31.8521 8.20197C31.8848 8.22997 31.9011 8.2673 31.9011 8.31397V11.632C31.9011 11.6786 31.8848 11.7183 31.8521 11.751C31.8241 11.779 31.7868 11.793 31.7401 11.793H31.4041C31.3574 11.793 31.3201 11.779 31.2921 11.751C31.2641 11.7183 31.2501 11.6786 31.2501 11.632V8.71297H29.9901V9.28697C29.9901 9.73497 29.9644 10.12 29.9131 10.442C29.8618 10.7593 29.7824 11.0183 29.6751 11.219C29.5724 11.415 29.4394 11.5596 29.2761 11.653C29.1174 11.7463 28.9284 11.793 28.7091 11.793ZM33.1056 11.793C33.059 11.793 33.0193 11.779 32.9866 11.751C32.9586 11.7183 32.9446 11.6786 32.9446 11.632V8.31397C32.9446 8.2673 32.9586 8.22997 32.9866 8.20197C33.0193 8.1693 33.059 8.15297 33.1056 8.15297H33.4416C33.4883 8.15297 33.5256 8.1693 33.5536 8.20197C33.5863 8.22997 33.6026 8.2673 33.6026 8.31397V9.34297H34.3866C34.8626 9.34297 35.2103 9.45497 35.4296 9.67897C35.649 9.90297 35.7586 10.2063 35.7586 10.589C35.7586 10.9996 35.6373 11.303 35.3946 11.499C35.152 11.695 34.788 11.793 34.3026 11.793H33.1056ZM33.5956 11.268H34.3306C34.6106 11.268 34.816 11.219 34.9466 11.121C35.0773 11.0183 35.1426 10.841 35.1426 10.589C35.1426 10.3463 35.0796 10.1666 34.9536 10.05C34.8276 9.92864 34.62 9.86797 34.3306 9.86797H33.5956V11.268ZM36.6125 11.793C36.5658 11.793 36.5261 11.779 36.4935 11.751C36.4655 11.7183 36.4515 11.6786 36.4515 11.632V8.31397C36.4515 8.2673 36.4655 8.22997 36.4935 8.20197C36.5261 8.1693 36.5658 8.15297 36.6125 8.15297H36.9485C36.9951 8.15297 37.0325 8.1693 37.0605 8.20197C37.0885 8.22997 37.1025 8.2673 37.1025 8.31397V9.65797H39.0135V8.31397C39.0135 8.2673 39.0275 8.22997 39.0555 8.20197C39.0881 8.1693 39.1278 8.15297 39.1745 8.15297H39.5035C39.5501 8.15297 39.5875 8.1693 39.6155 8.20197C39.6481 8.22997 39.6645 8.2673 39.6645 8.31397V11.632C39.6645 11.6786 39.6481 11.7183 39.6155 11.751C39.5875 11.779 39.5501 11.793 39.5035 11.793H39.1745C39.1278 11.793 39.0881 11.779 39.0555 11.751C39.0275 11.7183 39.0135 11.6786 39.0135 11.632V10.218H37.1025V11.632C37.1025 11.6786 37.0885 11.7183 37.0605 11.751C37.0325 11.779 36.9951 11.793 36.9485 11.793H36.6125ZM41.7321 11.863C41.4988 11.863 41.2864 11.8163 41.0951 11.723C40.9038 11.6296 40.7498 11.5036 40.6331 11.345C40.5164 11.1863 40.4581 11.0066 40.4581 10.806C40.4581 10.484 40.5888 10.2273 40.8501 10.036C41.1114 9.84464 41.4521 9.71864 41.8721 9.65797L42.9151 9.51097V9.30797C42.9151 9.08397 42.8498 8.90897 42.7191 8.78297C42.5931 8.65697 42.3854 8.59397 42.0961 8.59397C41.8861 8.59397 41.7158 8.63597 41.5851 8.71997C41.4591 8.80397 41.3704 8.9113 41.3191 9.04197C41.2911 9.11197 41.2421 9.14697 41.1721 9.14697H40.8571C40.8058 9.14697 40.7661 9.13297 40.7381 9.10497C40.7148 9.0723 40.7031 9.03497 40.7031 8.99297C40.7031 8.92297 40.7288 8.83664 40.7801 8.73397C40.8361 8.6313 40.9201 8.53097 41.0321 8.43297C41.1441 8.33497 41.2864 8.2533 41.4591 8.18797C41.6364 8.11797 41.8511 8.08297 42.1031 8.08297C42.3831 8.08297 42.6188 8.1203 42.8101 8.19497C43.0014 8.26497 43.1508 8.36064 43.2581 8.48197C43.3701 8.6033 43.4494 8.74097 43.4961 8.89497C43.5474 9.04897 43.5731 9.2053 43.5731 9.36397V11.632C43.5731 11.6786 43.5568 11.7183 43.5241 11.751C43.4961 11.779 43.4588 11.793 43.4121 11.793H43.0901C43.0388 11.793 42.9991 11.779 42.9711 11.751C42.9431 11.7183 42.9291 11.6786 42.9291 11.632V11.331C42.8684 11.415 42.7868 11.499 42.6841 11.583C42.5814 11.6623 42.4531 11.73 42.2991 11.786C42.1451 11.8373 41.9561 11.863 41.7321 11.863ZM41.8791 11.338C42.0704 11.338 42.2454 11.2983 42.4041 11.219C42.5628 11.135 42.6864 11.0066 42.7751 10.834C42.8684 10.6613 42.9151 10.4443 42.9151 10.183V9.98697L42.1031 10.106C41.7718 10.1526 41.5221 10.232 41.3541 10.344C41.1861 10.4513 41.1021 10.589 41.1021 10.757C41.1021 10.8876 41.1394 10.9973 41.2141 11.086C41.2934 11.17 41.3914 11.233 41.5081 11.275C41.6294 11.317 41.7531 11.338 41.8791 11.338ZM46.8474 11.793C46.7961 11.793 46.7564 11.779 46.7284 11.751C46.7004 11.7183 46.6864 11.6786 46.6864 11.632V10.491H45.8814V10.456C45.4427 10.456 45.1161 10.3486 44.9014 10.134C44.6914 9.91464 44.5864 9.63697 44.5864 9.30097C44.5864 8.90897 44.7007 8.61964 44.9294 8.43297C45.1627 8.2463 45.5127 8.15297 45.9794 8.15297H47.1834C47.2301 8.15297 47.2674 8.1693 47.2954 8.20197C47.3281 8.22997 47.3444 8.2673 47.3444 8.31397V11.632C47.3444 11.6786 47.3281 11.7183 47.2954 11.751C47.2674 11.779 47.2301 11.793 47.1834 11.793H46.8474ZM44.6284 11.793C44.5864 11.793 44.5514 11.779 44.5234 11.751C44.4954 11.723 44.4814 11.6903 44.4814 11.653C44.4814 11.6343 44.4837 11.6156 44.4884 11.597C44.4977 11.5736 44.5117 11.5503 44.5304 11.527L45.3634 10.295L46.0354 10.344L45.1464 11.688C45.1277 11.7113 45.1021 11.7346 45.0694 11.758C45.0367 11.7813 45.0017 11.793 44.9644 11.793H44.6284ZM45.9024 9.96597H46.6934V8.67797H45.9584C45.6971 8.67797 45.5034 8.72464 45.3774 8.81797C45.2561 8.90664 45.1954 9.06764 45.1954 9.30097C45.1954 9.4923 45.2514 9.65097 45.3634 9.77697C45.4801 9.90297 45.6597 9.96597 45.9024 9.96597Z" fill="black"/>
<rect x="0.538437" y="2.97496" width="55.7949" height="12.2234" rx="3.92308" stroke="url(#paint0_linear_6351_399)" stroke-width="0.871795"/>
<defs>
<linearGradient id="paint0_linear_6351_399" x1="28.4359" y1="2.53906" x2="28.4359" y2="15.6343" gradientUnits="userSpaceOnUse">
<stop stop-color="#FFC107"/>
<stop offset="1" stop-color="#EC851A"/>
</linearGradient>
</defs>
</svg>
